<?xml version="1.0"?>
<svg xmlns="http://www.w3.org/2000/svg" viewBox="0 0 512 512" width="512" height="512"><g id="outline"><circle cx="423" cy="295" r="9"/><path d="M488,200H400v-8a7.976,7.976,0,0,0-3.146-6.348l0-.006L264,84.047V66.332a84.6,84.6,0,0,0,16,1.535,84.013,84.013,0,0,0,26.53-4.277A8,8,0,0,0,312,56V24a8,8,0,0,0-10.53-7.59,68.319,68.319,0,0,1-42.94,0A8,8,0,0,0,248,24V84.047l-132.859,101.6,0,.006A7.979,7.979,0,0,0,112,192v8.634H24a8,8,0,0,0-8,8V448a8,8,0,0,0,8,8H264.029a30.645,30.645,0,0,0,1.5,11.25A30.31,30.31,0,0,0,294.32,488h42.088a59.59,59.59,0,0,0,59.647,0H438.16a30.226,30.226,0,0,0,28.683-20.672,29.522,29.522,0,0,0,1.637-9.648c0-.56-.018-1.121-.05-1.68H488a8,8,0,0,0,8-8V208A8,8,0,0,0,488,200Zm-8,16v16H400V216Zm0,192H462.24V368c0-1.532-.056-3.051-.145-4.559A55.688,55.688,0,0,0,479.6,351.6c.138-.139.265-.284.4-.423ZM96,408V368a24,24,0,0,0-48,0v40H32V248h80V408ZM80,376H64v-8a8,8,0,0,1,16,0ZM64,392H80v16H64ZM346.6,184l-85.9-62.47a8,8,0,0,0-9.41,0L165.4,184H143.631L256,98.071,368.369,184Zm-27.2,0H192.6L256,137.892ZM128,200H384v32H128Zm40,80h16v48H168Zm0,64h16v16H168Zm32,0h24v16H200Zm0-16V280h24v48Zm40-48h32v48H240Zm-72-16V248H344v16Zm192-16h24v16H360Zm-232,0h24V408H128Zm40,128h16v32H168Zm32,0h24v32H200Zm40,0h30.24v32H240Zm0-16V344h32v8.292A71.019,71.019,0,0,0,270.708,360Zm48-80h14.24l-5.657,5.656,9.36,9.362a85.347,85.347,0,0,0,7.811,6.9A72.285,72.285,0,0,0,288,320.791Zm29.257,3.7-3.7-3.7h14.441l3.686,14.745A68.956,68.956,0,0,1,317.257,283.7ZM350,302.044,344.486,280h43.508l-5.51,22.041A68.016,68.016,0,0,1,366.24,304,68.731,68.731,0,0,1,350,302.044Zm61.719-18.328A40,40,0,1,1,400,312,39.733,39.733,0,0,1,411.716,283.716ZM480,272.824c-.136-.139-.263-.284-.4-.423a56.074,56.074,0,0,0-74.376-4.281A7.822,7.822,0,0,0,400,264.2V248h80ZM296,34.343V49.978a68.538,68.538,0,0,1-32,0V34.343A84.792,84.792,0,0,0,296,34.343ZM112,216.634V232H32V216.634ZM32,424H270.24v14.094L269.277,440H32Zm419.69,38.189A14.271,14.271,0,0,1,438.16,472H393.84a8,8,0,0,0-4.252,1.224,43.61,43.61,0,0,1-46.666.018A8.006,8.006,0,0,0,338.64,472H294.32a14.305,14.305,0,0,1-12.859-20.633l3.92-7.76A8,8,0,0,0,286.24,440V368a56.19,56.19,0,0,1,46.026-55.08,84.938,84.938,0,0,0,52.1,5.119,55.853,55.853,0,0,0,61.871,49.576c0,.129.007.256.007.385v72a8,8,0,0,0,.83,3.548l3.84,7.76c.017.034.033.068.051.1a13.816,13.816,0,0,1,1.519,6.271A13.543,13.543,0,0,1,451.69,462.189ZM480,440H463.166l-.926-1.871V424H480Z"/><path d="M72,264a24,24,0,1,0,24,24A24.028,24.028,0,0,0,72,264Zm0,32a8,8,0,1,1,8-8A8.009,8.009,0,0,1,72,296Z"/><path d="M374.224,344.128V336h-16v8.128a26.6,26.6,0,0,0-5.815,51.7l22.57,7.524A10.6,10.6,0,0,1,371.628,424H360.82a10.609,10.609,0,0,1-10.6-10.6V408h-16v5.4a26.634,26.634,0,0,0,24,26.469V448h16v-8.128a26.6,26.6,0,0,0,5.815-51.7l-22.569-7.524A10.6,10.6,0,0,1,360.82,360h10.808a10.608,10.608,0,0,1,10.6,10.6V376h16v-5.4A26.634,26.634,0,0,0,374.224,344.128Z"/><path d="M423.029,336.971a7.982,7.982,0,0,0,5.658-2.343l33.941-33.941a8,8,0,1,0-11.315-11.315l-33.941,33.941a8,8,0,0,0,5.657,13.658Z"/><circle cx="457" cy="329" r="9"/></g></svg>
