<svg width="368.69232" height="115.53846" xmlns="http://www.w3.org/2000/svg">

 <g class="currentLayer">
  <title>Layer 1</title>
  <g fill="var(--font-color)" id="svg_1">
   <path fill="#222222" id="svg_2" d="m365.32419,89.80144c-8.15073,0.78012 -16.16161,-0.32489 -24.19472,-1.48671c-6.22988,-0.90136 -12.10062,-2.75885 -17.25468,-6.16113c-3.9946,-2.63737 -7.46279,-6.01606 -11.25691,-8.95269c-6.82607,-5.2826 -13.83459,-10.33213 -22.37972,-12.73388c-3.14696,-0.88462 -6.40605,-1.55823 -9.66174,-1.87271c-3.43499,-0.33326 -6.44865,-1.5699 -9.44427,-3.01552c-5.00455,-2.41621 -10.03497,-4.9047 -13.89,-8.88751c-3.83071,-3.95796 -7.36241,-8.2129 -10.76865,-12.5287c-4.21546,-5.34144 -8.10263,-10.92508 -12.25824,-16.31293c-2.1221,-2.7515 -4.43292,-5.41068 -7.62588,-7.08912c-1.50892,-0.79357 -3.06907,-1.22522 -4.66555,-1.83568c-0.31783,-0.12199 -0.63775,-0.53387 -0.95872,-0.64571c-0.52693,-0.18438 -1.57191,0.26706 -2.00057,0.74589c-0.58757,0.65611 -0.2815,1.1291 -0.64298,1.90086c-0.1482,0.31677 -2.03141,1.21381 -1.58916,2.04365c0.53111,-0.07355 1.13045,-0.33731 1.29903,-0.17905c0.08521,0.18742 -0.36488,0.56074 -0.72427,1.11338c0.61972,0.52676 1.09203,-0.0558 1.44175,-0.20695c2.13491,-0.92495 4.06517,-0.56709 5.7939,0.86407c3.38481,2.80323 6.20766,6.09164 8.38727,9.84365c3.27921,5.64451 6.3867,11.38236 9.63612,17.0436c3.39003,5.90752 8.05767,10.81324 13.08366,15.424c2.56696,2.35509 5.24266,4.61204 7.6643,7.09952c2.17124,2.22879 2.87931,5.23289 3.92742,8.05362c0.98748,2.65816 2.27789,5.20879 3.38899,7.82486c0.25798,0.6064 0.48851,1.29649 0.45741,1.9351c-0.33717,6.82307 -0.67931,13.64639 -1.15057,20.46135c-0.0873,1.25819 -0.61737,2.5415 -1.19004,3.69723c-0.03738,0.07457 -0.06404,0.13873 -0.09488,0.2067c-0.56954,0.16054 -1.31185,0.46361 -1.78311,1.04186c-0.75824,0.92926 0.59829,0.23612 2.07219,0.263c0.16205,0.04033 0.35181,0.07026 0.60142,0.0804c1.41509,0.05909 2.8516,0.06214 4.24866,-0.123c0.40748,-0.05377 0.98094,-0.81741 1.0204,-1.29041c0.30189,-3.66908 0.47675,-7.34781 0.72506,-11.0212c0.07684,-1.14559 0.25693,-2.28357 0.66755,-3.42815c1.11764,4.86565 4.35739,9.33972 3.02751,14.74532c-0.56509,0.19148 -1.32962,0.54731 -1.77866,1.1816c-0.67069,0.94676 0.5353,0.24018 1.95247,0.13341c1.69241,0.0104 3.26955,0.05503 4.82342,-0.07938c0.27523,-0.02384 0.71434,-1.08244 0.64403,-1.60819c-0.53111,-3.9435 -1.19239,-7.86925 -1.76585,-11.80767c-0.29013,-1.98684 -0.48198,-3.98813 -0.71669,-5.96737c6.91886,0.90035 13.75042,1.78928 20.71842,2.69672c-0.69421,5.12713 0.17486,10.74678 -2.68719,15.85971c-0.33195,0.1963 -0.65161,0.44383 -0.88424,0.77176c-0.64742,0.91378 0.45637,0.29293 1.80767,0.15217c1.33589,0.01649 2.6744,0.05706 4.00218,-0.03703c1.01544,-0.07126 1.39182,-0.82983 1.35549,-1.8088c-0.17146,-4.63384 1.28414,-9.01052 2.28547,-13.45897c0.02875,-0.12833 0.1333,-0.24119 0.34867,-0.61147c0.2355,1.16512 0.41925,2.1035 0.61737,3.03808c0.48825,2.31046 0.87247,4.64907 1.50996,6.92046c0.48303,1.72181 0.51282,3.32341 -0.48851,5.13221c-0.36357,0.20289 -0.72087,0.46691 -0.97362,0.82476c-0.77105,1.08751 0.9352,-0.00812 2.59232,0.13239c0.21328,0.01851 0.36906,0.00532 0.48015,-0.0279c0.87848,0.00101 1.70312,0 2.5241,-0.00533c1.13358,-0.00811 1.54107,-0.70759 1.42894,-1.6617c-0.22714,-1.9455 -0.36907,-3.92498 -0.86489,-5.81139c-0.94697,-3.60086 -1.25931,-7.22353 -1.11555,-11.23652c17.25128,1.98151 34.38939,4.10505 51.59284,1.34012c0.00863,-0.20797 0.01621,-0.4172 0.02483,-0.62517c-0.45087,-0.02029 -0.90174,-0.09587 -1.34111,-0.05351z"/>
  </g>
  <g id="svg_3"/>
  <g id="svg_4"/>
  <g id="svg_5"/>
  <g id="svg_6"/>
  <g id="svg_7"/>
  <g id="svg_8"/>
  <g id="svg_9"/>
  <g id="svg_10"/>
  <g id="svg_11"/>
  <g id="svg_12"/>
  <g id="svg_13"/>
  <g id="svg_14"/>
  <g id="svg_15"/>
  <g id="svg_16"/>
  <g id="svg_17"/>
  <text font-weight="normal" stroke-dasharray="2,2" stroke="#000" transform="matrix(3.9616436499520615,0,0,4.696815486349606,-34.32098315215304,-86.59395305580104) " xml:space="preserve" text-anchor="start" font-family="Helvetica, Arial, sans-serif" font-size="21" id="svg_18" y="35.82369" x="11.89868" stroke-width="0" fill="#222222">DINO</text>
  <text stroke-dasharray="2,2" stroke="#000" transform="matrix(1.3134227318919565,0,0,1.2888877191557502,0.792510185782988,-29.144704211899565) " xml:space="preserve" text-anchor="start" font-family="Helvetica, Arial, sans-serif" font-size="22" id="svg_19" y="104.70673" x="13.34613" stroke-opacity="null" stroke-width="0" fill="#222222">biuro rachunkowe</text>
 </g>
 <STYLE xmlns="http://www.w3.org/1999/xhtml">@import url(http://fonts.googleapis.com/css?family=Lato);</STYLE>
 <g>
  <title>Layer 2</title>
  <rect fill="none" y="0" x="0" height="100%" width="100%" id="backgroundrect"/>
 </g>
 <g>
  <title>background</title>
  <rect fill="none" id="canvas_background" height="117.53846" width="370.69232" y="-1" x="-1"/>
 </g>
</svg>